<svg version="1.1" preserveAspectRatio="none" xmlns="http://www.w3.org/2000/svg" width="500" height="500" viewBox="0 0 500 500"><rect width="100%" height="100%" fill="#121212" fill-opacity="1"/><svg viewBox="1545.8012 1318.8976 297.5993 140" width="333" height="156.65359427928763" x="83.5px" y="171.6732px" xmlns="http://www.w3.org/2000/svg" xmlns:xlink="http://www.w3.org/1999/xlink" preserveAspectRatio="none"><defs></defs><style>.companyName {fill:#F5F5F5;fill-opacity:1;}.icon3 {fill:#00DCFB;fill-opacity:1;}.icon3-str {stroke:#00DCFB;stroke-opacity:1;}.shapeStroke-str {stroke:#F5F5F5;stroke-opacity:1;}</style><g opacity="1" transform="rotate(0 1545.8012 1452.8976)">
<svg width="297.5993" height="6" x="1545.8012" y="1452.8976" version="1.1" preserveAspectRatio="none" viewBox="0 0 297.5993 6">
  <defs><rect x="0" y="0" width="297.5993" height="6" rx="4%" ry="4%" id="id-UPl23ini1760485198874"></rect></defs><use class="companyName shapeStroke-str" style="stroke-width:0;" xlink:href="#id-UPl23ini1760485198874"></use>
</svg>
</g><g opacity="1" transform="rotate(0 1545.8012 1318.8976)">
<svg width="297.5993" height="120" x="1545.8012" y="1318.8976" version="1.1" preserveAspectRatio="none" viewBox="1.8 -28.8 71.92 29">
  <g transform="matrix(1 0 0 1 0 0)" class="companyName"><path id="id-D6z1nYkh2" d="M8.28-14.12L1.80-14.12L1.80-28.60L37-28.60L37-14.12L30.52-14.12L30.52-23.40L21.80-23.40L21.80 0L15.40 0L15.40-23.40L8.28-23.40L8.28-14.12Z M64.36 0.20L40.68 0.20L40.68-5L63.68-4.96Q65.44-4.96 66.38-5.78Q67.32-6.60 67.32-8.44L67.32-8.44Q67.32-10.28 66.38-11.10Q65.44-11.92 63.68-11.92L63.68-11.92L49.36-11.92Q44.92-11.92 42.46-14.06Q40.00-16.20 40.00-20.36L40.00-20.36Q40.00-24.52 42.46-26.66Q44.92-28.80 49.36-28.80L49.36-28.80L71.84-28.80L71.84-23.60L50.04-23.64Q48.32-23.64 47.36-22.86Q46.40-22.08 46.40-20.36L46.40-20.36Q46.40-18.64 47.36-17.86Q48.32-17.08 50.04-17.08L50.04-17.08L64.36-17.08Q68.80-17.08 71.26-14.90Q73.72-12.72 73.72-8.44L73.72-8.44Q73.72-4.20 71.26-2Q68.80 0.20 64.36 0.20L64.36 0.20Z"/></g>
</svg>
</g><g opacity="1" transform="rotate(0 1545.8012 1452.8976)">
<svg width="65.4719" height="6" x="1545.8012" y="1452.8976" version="1.1" preserveAspectRatio="none" viewBox="0 0 65.4719 6">
  <defs><rect x="0" y="0" width="65.4719" height="6" rx="0px" ry="0px" id="id-o0jQam8yd1760485198874"></rect></defs><use class="icon3 shapeStroke-str" style="stroke-width:0;" xlink:href="#id-o0jQam8yd1760485198874"></use>
</svg>
</g></svg></svg>